<svg width="27" height="26" viewBox="0 0 27 26" fill="none" xmlns="http://www.w3.org/2000/svg">
<rect x="0.495361" y="-4.57764e-05" width="26" height="26" rx="13" fill="#FAE8F1"/>
<path opacity="0.5" d="M11.8237 19.6858H15.1666C18.3183 19.6858 19.8941 19.6858 20.8733 18.7067C21.8524 17.7276 21.8524 16.1517 21.8524 13C21.8524 12.6307 21.851 11.6562 21.8494 11.3286H5.13809C5.13651 11.6562 5.13789 12.6307 5.13789 13C5.13789 16.1517 5.13789 17.7276 6.117 18.7067C7.09611 19.6858 8.67196 19.6858 11.8237 19.6858Z" fill="#6F87C6"/>
<path d="M11.8195 6.31403H15.1711C18.3309 6.31403 19.9108 6.31403 20.8925 7.24651C21.5992 7.91792 21.7971 8.88394 21.8525 10.4926V11.3284H5.13806V10.4926C5.19347 8.88394 5.39137 7.91792 6.09815 7.24651C7.07978 6.31403 8.6597 6.31403 11.8195 6.31403Z" fill="#FF61B0"/>
<path d="M13.9132 15.7159C13.567 15.7159 13.2864 15.9966 13.2864 16.3427C13.2864 16.6889 13.567 16.9695 13.9132 16.9695H15.1668C15.5129 16.9695 15.7935 16.6889 15.7935 16.3427C15.7935 15.9966 15.5129 15.7159 15.1668 15.7159H13.9132Z" fill="#FF61B0"/>
<path d="M8.48092 15.7159C8.13475 15.7159 7.85413 15.9966 7.85413 16.3427C7.85413 16.6889 8.13475 16.9695 8.48092 16.9695H11.8238C12.17 16.9695 12.4506 16.6889 12.4506 16.3427C12.4506 15.9966 12.17 15.7159 11.8238 15.7159H8.48092Z" fill="#FF61B0"/>
</svg>
